<svg width="650" height="443" viewBox="0 0 650 443" fill="none" xmlns="http://www.w3.org/2000/svg">
<path d="M513.221 216.412C572.966 216.412 621.399 167.967 621.399 108.206C621.399 48.4455 572.966 0 513.221 0C453.476 0 405.042 48.4455 405.042 108.206C405.042 167.967 453.476 216.412 513.221 216.412Z" fill="#0077B6"/>
<path d="M63.7572 441.202H56.5454L50.4967 426.774H26.5346L20.9512 441.202H13.5067L35.1424 389.775H41.889L63.7572 441.202ZM48.1703 421.422L39.3299 399.548C39.0973 398.85 38.8646 397.686 38.3993 396.057H38.1667C37.9341 397.454 37.7014 398.617 37.2361 399.548L28.3958 421.422H48.1703Z" fill="#0077B6"/>
<path d="M78.6464 421.887V441.202H72.1324V389.775H87.7194C93.7681 389.775 98.4209 391.171 101.678 393.73C104.935 396.29 106.563 400.246 106.563 405.133C106.563 410.02 104.702 413.975 100.98 417.001C97.2577 420.026 92.3722 421.655 86.0909 421.655H78.6464V421.887ZM78.6464 395.359V416.535H85.6256C90.2785 416.535 93.7681 415.604 96.0945 413.743C98.4209 411.881 99.5841 409.089 99.5841 405.598C99.5841 398.85 95.1639 395.359 86.3236 395.359H78.6464Z" fill="#0077B6"/>
<path d="M160.771 441.202H153.559L147.51 426.774H123.548L117.965 441.202H110.52L132.156 389.775H139.135L160.771 441.202ZM145.184 421.422L136.343 399.548C136.111 398.85 135.878 397.686 135.413 396.057H135.18C134.948 397.454 134.715 398.617 134.25 399.548L125.409 421.422H145.184Z" fill="#0077B6"/>
<path d="M209.392 441.201H201.482L191.944 426.774C191.014 425.378 190.316 424.214 189.385 423.283C188.687 422.352 187.757 421.654 186.826 420.956C185.895 420.258 184.965 420.025 184.034 419.56C183.104 419.327 181.941 419.095 180.777 419.095H175.427V440.969H168.913V389.542H185.663C188.222 389.542 190.316 389.774 192.409 390.472C194.503 390.938 196.364 391.869 197.76 393.032C199.389 394.196 200.552 395.592 201.25 397.221C202.18 398.85 202.646 400.944 202.646 403.271C202.646 405.133 202.413 406.761 201.715 408.158C201.017 409.554 200.319 410.95 199.156 412.114C197.993 413.277 196.83 414.208 195.201 415.139C193.573 416.069 191.944 416.535 190.083 417V417.233C191.014 417.698 191.944 418.164 192.642 418.629C193.34 419.095 194.038 419.793 194.736 420.258C195.434 420.956 195.899 421.654 196.597 422.585C197.295 423.516 197.993 424.447 198.691 425.61L209.392 441.201ZM175.659 395.359V413.975H184.732C186.361 413.975 187.989 413.742 189.385 413.277C190.781 412.812 191.944 412.114 193.107 411.415C194.038 410.485 194.968 409.554 195.434 408.39C195.899 407.227 196.364 405.831 196.364 404.202C196.364 401.409 195.434 399.315 193.34 397.686C191.246 396.057 188.454 395.359 184.965 395.359H175.659Z" fill="#0077B6"/>
<path d="M250.569 395.36H234.284V441.202H227.77V395.36H211.485V390.008H250.569V395.36Z" fill="#0077B6"/>
<path d="M316.868 441.202H310.354V406.762C310.354 403.969 310.586 400.711 310.819 396.756H310.586C309.888 399.083 309.423 400.712 308.958 401.642L289.649 441.202H286.392L267.082 401.875C266.617 400.711 265.919 399.083 265.454 396.523H265.221C265.454 398.617 265.454 401.875 265.454 406.529V441.202H259.173V389.775H268.013L285.228 425.611C286.624 428.403 287.322 430.497 287.788 431.661H288.02C289.183 428.868 290.114 426.774 290.812 425.378L308.493 389.775H316.868V441.202Z" fill="#0077B6"/>
<path d="M361.771 441.202H331.76V389.775H360.375V395.127H338.274V412.114H358.747V417.466H338.274V435.384H361.539L361.771 441.202Z" fill="#0077B6"/>
<path d="M418.07 441.201H409.927L380.847 400.246C380.149 399.315 379.451 398.151 378.986 396.988H378.753C378.986 398.151 378.986 400.478 378.986 403.969V441.201H372.472V389.774H381.08L409.23 430.032C410.393 431.66 411.091 432.824 411.556 433.522H411.789C411.556 432.126 411.323 429.566 411.323 425.843V389.542H417.837L418.07 441.201Z" fill="#0077B6"/>
<path d="M466.23 395.36H449.945V441.202H443.431V395.36H427.146V390.008H466.23V395.36Z" fill="#0077B6"/>
<path d="M0.0098877 340.21L277.318 65.1568H377.354L587.197 274.821V153.351H564.165V123.798L628.374 59.8046H650.01V340.21H559.512L328.267 108.905L206.595 230.607H336.177L393.872 297.858H137.501L95.1602 340.21H0.0098877Z" fill="#414141"/>
<path d="M519.73 442.133C511.82 442.133 505.306 439.806 500.42 434.92C495.535 430.033 493.208 423.75 493.208 416.071C493.208 407.694 495.768 401.178 500.653 396.291C505.539 391.405 512.285 388.845 520.66 388.845C528.337 388.845 534.619 391.172 539.504 396.059C544.157 400.945 546.716 406.996 546.716 414.907C546.716 423.285 544.39 430.033 539.504 434.687C534.619 439.574 528.105 442.133 519.73 442.133ZM520.428 394.43C514.612 394.43 509.726 396.291 506.004 400.247C502.282 404.203 500.42 409.323 500.42 415.606C500.42 421.888 502.282 427.008 505.771 430.964C509.261 434.92 514.146 436.781 519.962 436.781C526.244 436.781 531.129 434.92 534.619 431.196C538.108 427.473 539.969 422.354 539.969 415.838C539.969 409.09 538.341 403.738 534.851 400.014C531.129 396.291 526.476 394.43 520.428 394.43Z" fill="#414141"/>
<path d="M603.252 441.203H595.11L566.029 400.247C565.331 399.317 564.634 398.153 564.168 396.99H563.936C564.168 398.153 564.168 400.48 564.168 403.971V441.203H557.887V389.776H566.495L594.644 430.033C595.808 431.662 596.505 432.826 596.971 433.524H597.203C596.971 432.127 596.738 429.568 596.738 425.844V389.543H603.252V441.203Z" fill="#414141"/>
<path d="M647.915 441.202H617.904V389.775H646.519V395.127H624.418V412.114H644.89V417.466H624.418V435.384H647.682V441.202H647.915Z" fill="#414141"/>
</svg>
