<svg width="651" height="443" viewBox="0 0 651 443" fill="none" xmlns="http://www.w3.org/2000/svg">
<path d="M513.954 216.762C573.699 216.762 622.132 168.316 622.132 108.555C622.132 48.7948 573.699 0.349243 513.954 0.349243C454.209 0.349243 405.776 48.7948 405.776 108.555C405.776 168.316 454.209 216.762 513.954 216.762Z" fill="white"/>
<path d="M64.4905 441.551H57.2786L51.23 427.123H27.2679L21.6845 441.551H14.24L35.8756 390.124H42.6222L64.4905 441.551ZM48.9035 421.771L40.0632 399.897C39.8305 399.199 39.5979 398.036 39.1326 396.407H38.9C38.6673 397.803 38.4347 398.966 37.9694 399.897L29.129 421.771H48.9035Z" fill="#EEEEEE"/>
<path d="M79.3797 422.237V441.551H72.8657V390.124H88.4527C94.5014 390.124 99.1542 391.52 102.411 394.08C105.668 396.639 107.297 400.595 107.297 405.482C107.297 410.369 105.436 414.325 101.713 417.35C97.991 420.375 93.1055 422.004 86.8242 422.004H79.3797V422.237ZM79.3797 395.709V416.884H86.3589C91.0117 416.884 94.5014 415.954 96.8278 414.092C99.1542 412.23 100.317 409.438 100.317 405.947C100.317 399.199 95.8972 395.709 87.0568 395.709H79.3797Z" fill="#EEEEEE"/>
<path d="M161.504 441.551H154.292L148.244 427.123H124.281L118.698 441.551H111.254L132.889 390.124H139.868L161.504 441.551ZM145.917 421.771L137.077 399.897C136.844 399.199 136.611 398.036 136.146 396.407H135.914C135.681 397.803 135.448 398.966 134.983 399.897L126.143 421.771H145.917Z" fill="#EEEEEE"/>
<path d="M210.125 441.55H202.216L192.677 427.123C191.747 425.727 191.049 424.563 190.118 423.632C189.42 422.702 188.49 422.004 187.559 421.305C186.629 420.607 185.698 420.375 184.768 419.909C183.837 419.677 182.674 419.444 181.511 419.444H176.16V441.318H169.646V389.891H186.396C188.955 389.891 191.049 390.123 193.143 390.822C195.236 391.287 197.098 392.218 198.493 393.381C200.122 394.545 201.285 395.941 201.983 397.57C202.914 399.199 203.379 401.293 203.379 403.62C203.379 405.482 203.146 407.111 202.448 408.507C201.75 409.903 201.052 411.299 199.889 412.463C198.726 413.626 197.563 414.557 195.934 415.488C194.306 416.419 192.677 416.884 190.816 417.35V417.582C191.747 418.048 192.677 418.513 193.375 418.978C194.073 419.444 194.771 420.142 195.469 420.607C196.167 421.305 196.632 422.004 197.33 422.934C198.028 423.865 198.726 424.796 199.424 425.959L210.125 441.55ZM176.392 395.708V414.324H185.465C187.094 414.324 188.722 414.092 190.118 413.626C191.514 413.161 192.677 412.463 193.841 411.765C194.771 410.834 195.702 409.903 196.167 408.74C196.632 407.576 197.098 406.18 197.098 404.551C197.098 401.759 196.167 399.664 194.073 398.035C191.979 396.406 189.188 395.708 185.698 395.708H176.392Z" fill="#EEEEEE"/>
<path d="M251.302 395.709H235.017V441.551H228.503V395.709H212.218V390.357H251.302V395.709Z" fill="#EEEEEE"/>
<path d="M317.601 441.551H311.087V407.111C311.087 404.319 311.32 401.061 311.552 397.105H311.32C310.622 399.432 310.156 401.061 309.691 401.992L290.382 441.551H287.125L267.816 402.224C267.35 401.061 266.652 399.432 266.187 396.872H265.955C266.187 398.966 266.187 402.224 266.187 406.878V441.551H259.906V390.124H268.746L285.962 425.96C287.358 428.752 288.056 430.847 288.521 432.01H288.753C289.917 429.218 290.847 427.123 291.545 425.727L309.226 390.124H317.601V441.551Z" fill="#EEEEEE"/>
<path d="M362.504 441.551H332.494V390.124H361.109V395.476H339.008V412.463H359.48V417.815H339.008V435.733H362.272L362.504 441.551Z" fill="#EEEEEE"/>
<path d="M418.803 441.55H410.661L381.581 400.595C380.883 399.664 380.185 398.501 379.72 397.337H379.487C379.72 398.501 379.72 400.828 379.72 404.318V441.55H373.206V390.123H381.813L409.963 430.381C411.126 432.01 411.824 433.173 412.289 433.871H412.522C412.289 432.475 412.057 429.915 412.057 426.192V389.891H418.571L418.803 441.55Z" fill="#EEEEEE"/>
<path d="M466.963 395.709H450.678V441.551H444.164V395.709H427.879V390.357H466.963V395.709Z" fill="#EEEEEE"/>
<path d="M0.743164 340.559L278.052 65.5059H378.088L587.93 275.17V153.7H564.899V124.147L629.108 60.1538H650.743V340.559H560.246L329 109.254L207.329 230.957H336.91L394.605 298.207H138.234L95.8935 340.559H0.743164Z" fill="#EEEEEE"/>
<path d="M520.463 442.483C512.553 442.483 506.039 440.156 501.154 435.269C496.268 430.382 493.942 424.099 493.942 416.42C493.942 408.043 496.501 401.527 501.386 396.641C506.272 391.754 513.018 389.194 521.393 389.194C529.071 389.194 535.352 391.521 540.237 396.408C544.89 401.295 547.449 407.345 547.449 415.257C547.449 423.634 545.123 430.382 540.237 435.036C535.352 439.923 528.838 442.483 520.463 442.483ZM521.161 394.779C515.345 394.779 510.459 396.641 506.737 400.596C503.015 404.552 501.154 409.672 501.154 415.955C501.154 422.238 503.015 427.357 506.504 431.313C509.994 435.269 514.879 437.131 520.696 437.131C526.977 437.131 531.862 435.269 535.352 431.546C538.842 427.823 540.703 422.703 540.703 416.187C540.703 409.439 539.074 404.087 535.585 400.364C531.862 396.641 527.21 394.779 521.161 394.779Z" fill="#EEEEEE"/>
<path d="M603.985 441.552H595.843L566.763 400.597C566.065 399.666 565.367 398.502 564.901 397.339H564.669C564.901 398.502 564.901 400.829 564.901 404.32V441.552H558.62V390.125H567.228L595.377 430.382C596.541 432.011 597.239 433.175 597.704 433.873H597.937C597.704 432.477 597.471 429.917 597.471 426.194V389.892H603.985V441.552Z" fill="#EEEEEE"/>
<path d="M648.648 441.551H618.637V390.124H647.252V395.476H625.151V412.463H645.624V417.815H625.151V435.733H648.416V441.551H648.648Z" fill="#EEEEEE"/>
</svg>
